<?xml version="1.0" encoding="UTF-8"?>
<svg id="Layer_2" data-name="Layer 2" xmlns="http://www.w3.org/2000/svg" viewBox="0 0 14.35 21.56">
  <defs>
    <style>
      .cls-1 {
        fill: #666;
      }
    </style>
  </defs>
  <g id="Layer_1-2" data-name="Layer 1">
    <g>
      <g>
        <path class="cls-1" d="M13.94,21.45H.4c-.16,0-.29-.13-.29-.29V4.97c0-.16,.13-.29,.29-.29H13.94c.16,0,.29,.13,.29,.29V21.15c0,.16-.13,.29-.29,.29Zm-13.24-.59H13.65V5.26H.7v15.6Z"/>
        <path class="cls-1" d="M13.94,21.56H.4c-.22,0-.4-.18-.4-.4V4.97c0-.22,.18-.4,.4-.4H13.94c.22,0,.4,.18,.4,.4V21.15c0,.22-.18,.4-.4,.4ZM.4,4.78c-.1,0-.18,.08-.18,.18V21.15c0,.1,.08,.18,.18,.18H13.94c.1,0,.18-.08,.18-.18V4.97c0-.1-.08-.18-.18-.18H.4ZM13.65,20.97H.7c-.06,0-.11-.05-.11-.11V5.26c0-.06,.05-.11,.11-.11H13.65c.06,0,.11,.05,.11,.11v15.6c0,.06-.05,.11-.11,.11Zm-12.84-.22H13.54V5.37H.81v15.38Z"/>
      </g>
      <g>
        <path class="cls-1" d="M11.51,8.42c-.16,0-.29-.13-.29-.29v-3.38c0-2.23-1.82-4.05-4.05-4.05S3.13,2.51,3.13,4.75v3.38c0,.16-.13,.29-.29,.29s-.29-.13-.29-.29v-3.38C2.54,2.19,4.62,.11,7.17,.11s4.63,2.08,4.63,4.63v3.38c0,.16-.13,.29-.29,.29Z"/>
        <path class="cls-1" d="M11.51,8.53c-.22,0-.4-.18-.4-.4v-3.38c0-2.17-1.77-3.94-3.94-3.94s-3.94,1.77-3.94,3.94v3.38c0,.22-.18,.4-.4,.4s-.4-.18-.4-.4v-3.38C2.43,2.13,4.56,0,7.17,0s4.75,2.13,4.75,4.75v3.38c0,.22-.18,.4-.4,.4ZM7.17,.59c2.29,0,4.16,1.86,4.16,4.16v3.38c0,.1,.08,.18,.18,.18s.18-.08,.18-.18v-3.38C11.7,2.25,9.67,.22,7.17,.22S2.65,2.25,2.65,4.75v3.38c0,.1,.08,.18,.18,.18s.18-.08,.18-.18v-3.38C3.02,2.45,4.88,.59,7.17,.59Z"/>
      </g>
    </g>
  </g>
</svg>