<?xml version="1.0" encoding="UTF-8"?>
<svg id="Layer_2" data-name="Layer 2" xmlns="http://www.w3.org/2000/svg" viewBox="0 0 28.63 28.62">
  <defs>
    <style>
      .cls-1 {
        fill: none;
        stroke: #676767;
        stroke-miterlimit: 10;
        stroke-width: 1.16px;
      }
    </style>
  </defs>
  <g id="Layer_1-2" data-name="Layer 1">
    <path class="cls-1" d="M19.62,19.67l3.03,3.03c.86,.86,.86,2.26,0,3.13h0c-2.95,2.95-7.72,2.95-10.67,0L2.79,16.64C-.15,13.69-.15,8.91,2.79,5.97h0c.86-.86,2.26-.86,3.13,0l3.03,3.03c.86,.86,.86,2.26,0,3.13l-1.47,1.47,7.55,7.55,1.47-1.47c.86-.86,2.26-.86,3.13,0Zm1.79-5.59c0-3.78-3.08-6.86-6.86-6.86-.92,0-1.66,.74-1.66,1.66s.74,1.66,1.66,1.66c1.95,0,3.54,1.59,3.54,3.55,0,.92,.74,1.66,1.66,1.66s1.66-.74,1.66-1.66Zm6.64,0C28.05,6.64,21.99,.58,14.55,.58c-.92,0-1.66,.74-1.66,1.66s.74,1.66,1.66,1.66c5.61,0,10.18,4.57,10.18,10.18,0,.92,.74,1.66,1.66,1.66s1.66-.74,1.66-1.66Z"/>
  </g>
</svg>